<?xml version='1.0' encoding='utf-8'?>
<svg height="155.35mm" viewBox="0.0 0.0 120.80 155.35" width="120.80mm" xmlns="http://www.w3.org/2000/svg" xmlns:cc="http://creativecommons.org/ns#" xmlns:dc="http://purl.org/dc/elements/1.1/" xmlns:inkscape="http://www.inkscape.org/namespaces/inkscape" xmlns:rdf="http://www.w3.org/1999/02/22-rdf-syntax-ns#" xmlns:svg="http://www.w3.org/2000/svg" xmlns:xlink="http://www.w3.org/1999/xlink">
<!--
TrayLayout2 - Generate a typetray from a layout file


Edit the layout text graphics to adjust your tray.
Put in the sizes for each column and row. You can replace the hyphens and
vertical bars representing the walls with a space character to remove the walls.
You can replace the space characters representing the floor by a "X" to remove the floor for this compartment.



Created with Boxes.py (https://festi.info/boxes.py)
-->
<title>TrayLayout2</title>
<metadata>
<rdf:RDF><cc:Work>
<dc:title>Tray - TrayLayout2</dc:title>
<dc:description>Generate a typetray from a layout file

Edit the layout text graphics to adjust your tray.
Put in the sizes for each column and row. You can replace the hyphens and
vertical bars representing the walls with a space character to remove the walls.
You can replace the space characters representing the floor by a "X" to remove the floor for this compartment.


Created with Boxes.py (https://festi.info/boxes.py)
</dc:description>
</cc:Work></rdf:RDF></metadata>
<g id="p-0" style="fill:none;stroke-linecap:round;stroke-linejoin:round;">
  <path d="M 10.400 145.350 H 110.400 V 135.350 H 10.400 V 145.350 Z" stroke="rgb(0,0,0)" stroke-width="0.20" />
  <text dominant-baseline="hanging" font-size="8px" style="font-family: sans-serif ; font-weight: normal; font-style: normal; fill: rgb(255,0,0)" text-anchor="middle" transform="matrix( 1.000 0.000 0.000 1.000 60.400 136.350 )">100mm, burn:0.10mm</text>
</g>
<g id="p-1" style="fill:none;stroke-linecap:round;stroke-linejoin:round;">
  <path d="M 13.400 130.650 H 16.400 H 19.400 H 22.400 C 22.455 130.650 22.500 130.605 22.500 130.550 V 122.150 C 22.500 122.050 22.400 122.150 22.500 122.150 H 25.400 C 25.455 122.150 25.500 122.105 25.500 122.050 V 116.050 C 25.500 115.995 25.455 115.950 25.400 115.950 H 22.500 C 22.400 115.950 22.500 116.050 22.500 115.950 V 110.150 C 22.500 110.050 22.400 110.150 22.500 110.150 H 25.400 C 25.455 110.150 25.500 110.105 25.500 110.050 V 104.050 C 25.500 103.995 25.455 103.950 25.400 103.950 H 22.500 C 22.400 103.950 22.500 104.050 22.500 103.950 V 98.150 C 22.500 98.050 22.400 98.150 22.500 98.150 H 25.400 C 25.455 98.150 25.500 98.105 25.500 98.050 V 92.050 C 25.500 91.995 25.455 91.950 25.400 91.950 H 22.500 C 22.400 91.950 22.500 92.050 22.500 91.950 V 83.550 C 22.500 83.495 22.455 83.450 22.400 83.450 H 13.400 C 13.345 83.450 13.300 83.495 13.300 83.550 V 91.950 C 13.300 92.050 13.400 91.950 13.300 91.950 H 10.400 C 10.345 91.950 10.300 91.995 10.300 92.050 V 98.050 C 10.300 98.105 10.345 98.150 10.400 98.150 H 13.300 C 13.400 98.150 13.300 98.050 13.300 98.150 V 103.950 C 13.300 104.050 13.400 103.950 13.300 103.950 H 10.400 C 10.345 103.950 10.300 103.995 10.300 104.050 V 110.050 C 10.300 110.105 10.345 110.150 10.400 110.150 H 13.300 C 13.400 110.150 13.300 110.050 13.300 110.150 V 115.950 C 13.300 116.050 13.400 115.950 13.300 115.950 H 10.400 C 10.345 115.950 10.300 115.995 10.300 116.050 V 122.050 C 10.300 122.105 10.345 122.150 10.400 122.150 H 13.300 C 13.400 122.150 13.300 122.050 13.300 122.150 V 130.550 C 13.300 130.605 13.345 130.650 13.400 130.650 Z" stroke="rgb(0,0,0)" stroke-width="0.20" />
  <path d="M 16.300 118.050 V 120.950 C 16.300 121.050 16.400 120.950 16.300 120.950 H 13.500 C 13.400 120.950 13.500 121.050 13.500 120.950 V 115.150 C 13.500 115.050 13.400 115.150 13.500 115.150 H 16.300 C 16.400 115.150 16.300 115.050 16.300 115.150 V 118.050 Z" stroke="rgb(0,0,255)" stroke-width="0.20" />
  <path d="M 16.300 106.050 V 108.950 C 16.300 109.050 16.400 108.950 16.300 108.950 H 13.500 C 13.400 108.950 13.500 109.050 13.500 108.950 V 103.150 C 13.500 103.050 13.400 103.150 13.500 103.150 H 16.300 C 16.400 103.150 16.300 103.050 16.300 103.150 V 106.050 Z" stroke="rgb(0,0,255)" stroke-width="0.20" />
  <path d="M 19.300 118.050 V 120.950 C 19.300 121.050 19.400 120.950 19.300 120.950 H 16.500 C 16.400 120.950 16.500 121.050 16.500 120.950 V 115.150 C 16.500 115.050 16.400 115.150 16.500 115.150 H 19.300 C 19.400 115.150 19.300 115.050 19.300 115.150 V 118.050 Z" stroke="rgb(0,0,255)" stroke-width="0.20" />
  <path d="M 19.300 106.050 V 108.950 C 19.300 109.050 19.400 108.950 19.300 108.950 H 16.500 C 16.400 108.950 16.500 109.050 16.500 108.950 V 103.150 C 16.500 103.050 16.400 103.150 16.500 103.150 H 19.300 C 19.400 103.150 19.300 103.050 19.300 103.150 V 106.050 Z" stroke="rgb(0,0,255)" stroke-width="0.20" />
  <path d="M 22.300 118.050 V 120.950 C 22.300 121.050 22.400 120.950 22.300 120.950 H 19.500 C 19.400 120.950 19.500 121.050 19.500 120.950 V 115.150 C 19.500 115.050 19.400 115.150 19.500 115.150 H 22.300 C 22.400 115.150 22.300 115.050 22.300 115.150 V 118.050 Z" stroke="rgb(0,0,255)" stroke-width="0.20" />
  <path d="M 22.300 106.050 V 108.950 C 22.300 109.050 22.400 108.950 22.300 108.950 H 19.500 C 19.400 108.950 19.500 109.050 19.500 108.950 V 103.150 C 19.500 103.050 19.400 103.150 19.500 103.150 H 22.300 C 22.400 103.150 22.300 103.050 22.300 103.150 V 106.050 Z" stroke="rgb(0,0,255)" stroke-width="0.20" />
</g>
<g id="p-2" style="fill:none;stroke-linecap:round;stroke-linejoin:round;">
  <path d="M 30.100 130.650 C 30.155 130.650 30.200 130.605 30.200 130.550 V 112.150 C 30.200 112.050 30.100 112.150 30.200 112.150 H 33.000 C 33.100 112.150 33.000 112.050 33.000 112.150 V 130.550 C 33.000 130.605 33.045 130.650 33.100 130.650 C 33.155 130.650 33.200 130.605 33.200 130.550 V 112.150 C 33.200 112.050 33.100 112.150 33.200 112.150 H 36.000 C 36.100 112.150 36.000 112.050 36.000 112.150 V 130.550 C 36.000 130.605 36.045 130.650 36.100 130.650 C 36.155 130.650 36.200 130.605 36.200 130.550 V 112.150 C 36.200 112.050 36.100 112.150 36.200 112.150 H 39.000 C 39.100 112.150 39.000 112.050 39.000 112.150 V 130.550 C 39.000 130.605 39.045 130.650 39.100 130.650 C 39.155 130.650 39.200 130.605 39.200 130.550 V 121.150 C 39.200 121.050 39.100 121.150 39.200 121.150 H 42.100 C 42.155 121.150 42.200 121.105 42.200 121.050 V 115.050 C 42.200 114.995 42.155 114.950 42.100 114.950 H 39.200 C 39.100 114.950 39.200 115.050 39.200 114.950 V 109.150 C 39.200 109.050 39.100 109.150 39.200 109.150 H 42.100 C 42.155 109.150 42.200 109.105 42.200 109.050 V 103.050 C 42.200 102.995 42.155 102.950 42.100 102.950 H 39.200 C 39.100 102.950 39.200 103.050 39.200 102.950 V 93.550 C 39.200 93.495 39.155 93.450 39.100 93.450 H 30.100 C 30.045 93.450 30.000 93.495 30.000 93.550 V 102.950 C 30.000 103.050 30.100 102.950 30.000 102.950 H 27.100 C 27.045 102.950 27.000 102.995 27.000 103.050 V 109.050 C 27.000 109.105 27.045 109.150 27.100 109.150 H 30.000 C 30.100 109.150 30.000 109.050 30.000 109.150 V 114.950 C 30.000 115.050 30.100 114.950 30.000 114.950 H 27.100 C 27.045 114.950 27.000 114.995 27.000 115.050 V 121.050 C 27.000 121.105 27.045 121.150 27.100 121.150 H 30.000 C 30.100 121.150 30.000 121.050 30.000 121.150 V 130.550 C 30.000 130.605 30.045 130.650 30.100 130.650 Z" stroke="rgb(0,0,0)" stroke-width="0.20" />
</g>
<g id="p-3" style="fill:none;stroke-linecap:round;stroke-linejoin:round;">
  <path d="M 46.800 130.650 C 46.855 130.650 46.900 130.605 46.900 130.550 V 112.150 C 46.900 112.050 46.800 112.150 46.900 112.150 H 49.700 C 49.800 112.150 49.700 112.050 49.700 112.150 V 130.550 C 49.700 130.605 49.745 130.650 49.800 130.650 C 49.855 130.650 49.900 130.605 49.900 130.550 V 112.150 C 49.900 112.050 49.800 112.150 49.900 112.150 H 52.700 C 52.800 112.150 52.700 112.050 52.700 112.150 V 130.550 C 52.700 130.605 52.745 130.650 52.800 130.650 C 52.855 130.650 52.900 130.605 52.900 130.550 V 112.150 C 52.900 112.050 52.800 112.150 52.900 112.150 H 55.700 C 55.800 112.150 55.700 112.050 55.700 112.150 V 130.550 C 55.700 130.605 55.745 130.650 55.800 130.650 C 55.855 130.650 55.900 130.605 55.900 130.550 V 121.150 C 55.900 121.050 55.800 121.150 55.900 121.150 H 58.800 C 58.855 121.150 58.900 121.105 58.900 121.050 V 115.050 C 58.900 114.995 58.855 114.950 58.800 114.950 H 55.900 C 55.800 114.950 55.900 115.050 55.900 114.950 V 109.150 C 55.900 109.050 55.800 109.150 55.900 109.150 H 58.800 C 58.855 109.150 58.900 109.105 58.900 109.050 V 103.050 C 58.900 102.995 58.855 102.950 58.800 102.950 H 55.900 C 55.800 102.950 55.900 103.050 55.900 102.950 V 93.550 C 55.900 93.495 55.855 93.450 55.800 93.450 H 46.800 C 46.745 93.450 46.700 93.495 46.700 93.550 V 102.950 C 46.700 103.050 46.800 102.950 46.700 102.950 H 43.800 C 43.745 102.950 43.700 102.995 43.700 103.050 V 109.050 C 43.700 109.105 43.745 109.150 43.800 109.150 H 46.700 C 46.800 109.150 46.700 109.050 46.700 109.150 V 114.950 C 46.700 115.050 46.800 114.950 46.700 114.950 H 43.800 C 43.745 114.950 43.700 114.995 43.700 115.050 V 121.050 C 43.700 121.105 43.745 121.150 43.800 121.150 H 46.700 C 46.800 121.150 46.700 121.050 46.700 121.150 V 130.550 C 46.700 130.605 46.745 130.650 46.800 130.650 Z" stroke="rgb(0,0,0)" stroke-width="0.20" />
</g>
<g id="p-4" style="fill:none;stroke-linecap:round;stroke-linejoin:round;">
  <path d="M 63.500 130.650 C 63.555 130.650 63.600 130.605 63.600 130.550 V 112.150 C 63.600 112.050 63.500 112.150 63.600 112.150 H 66.400 C 66.500 112.150 66.400 112.050 66.400 112.150 V 130.550 C 66.400 130.605 66.445 130.650 66.500 130.650 C 66.555 130.650 66.600 130.605 66.600 130.550 V 112.150 C 66.600 112.050 66.500 112.150 66.600 112.150 H 69.400 C 69.500 112.150 69.400 112.050 69.400 112.150 V 130.550 C 69.400 130.605 69.445 130.650 69.500 130.650 C 69.555 130.650 69.600 130.605 69.600 130.550 V 112.150 C 69.600 112.050 69.500 112.150 69.600 112.150 H 72.400 C 72.500 112.150 72.400 112.050 72.400 112.150 V 130.550 C 72.400 130.605 72.445 130.650 72.500 130.650 C 72.555 130.650 72.600 130.605 72.600 130.550 V 121.150 C 72.600 121.050 72.500 121.150 72.600 121.150 H 75.500 C 75.555 121.150 75.600 121.105 75.600 121.050 V 115.050 C 75.600 114.995 75.555 114.950 75.500 114.950 H 72.600 C 72.500 114.950 72.600 115.050 72.600 114.950 V 109.150 C 72.600 109.050 72.500 109.150 72.600 109.150 H 75.500 C 75.555 109.150 75.600 109.105 75.600 109.050 V 103.050 C 75.600 102.995 75.555 102.950 75.500 102.950 H 72.600 C 72.500 102.950 72.600 103.050 72.600 102.950 V 93.550 C 72.600 93.495 72.555 93.450 72.500 93.450 H 63.500 C 63.445 93.450 63.400 93.495 63.400 93.550 V 102.950 C 63.400 103.050 63.500 102.950 63.400 102.950 H 60.500 C 60.445 102.950 60.400 102.995 60.400 103.050 V 109.050 C 60.400 109.105 60.445 109.150 60.500 109.150 H 63.400 C 63.500 109.150 63.400 109.050 63.400 109.150 V 114.950 C 63.400 115.050 63.500 114.950 63.400 114.950 H 60.500 C 60.445 114.950 60.400 114.995 60.400 115.050 V 121.050 C 60.400 121.105 60.445 121.150 60.500 121.150 H 63.400 C 63.500 121.150 63.400 121.050 63.400 121.150 V 130.550 C 63.400 130.605 63.445 130.650 63.500 130.650 Z" stroke="rgb(0,0,0)" stroke-width="0.20" />
</g>
<g id="p-5" style="fill:none;stroke-linecap:round;stroke-linejoin:round;">
  <path d="M 80.200 130.650 H 83.200 H 86.200 H 89.200 C 89.255 130.650 89.300 130.605 89.300 130.550 V 122.150 C 89.300 122.050 89.200 122.150 89.300 122.150 H 92.200 C 92.255 122.150 92.300 122.105 92.300 122.050 V 116.050 C 92.300 115.995 92.255 115.950 92.200 115.950 H 89.300 C 89.200 115.950 89.300 116.050 89.300 115.950 V 110.150 C 89.300 110.050 89.200 110.150 89.300 110.150 H 92.200 C 92.255 110.150 92.300 110.105 92.300 110.050 V 104.050 C 92.300 103.995 92.255 103.950 92.200 103.950 H 89.300 C 89.200 103.950 89.300 104.050 89.300 103.950 V 98.150 C 89.300 98.050 89.200 98.150 89.300 98.150 H 92.200 C 92.255 98.150 92.300 98.105 92.300 98.050 V 92.050 C 92.300 91.995 92.255 91.950 92.200 91.950 H 89.300 C 89.200 91.950 89.300 92.050 89.300 91.950 V 83.550 C 89.300 83.495 89.255 83.450 89.200 83.450 H 80.200 C 80.145 83.450 80.100 83.495 80.100 83.550 V 91.950 C 80.100 92.050 80.200 91.950 80.100 91.950 H 77.200 C 77.145 91.950 77.100 91.995 77.100 92.050 V 98.050 C 77.100 98.105 77.145 98.150 77.200 98.150 H 80.100 C 80.200 98.150 80.100 98.050 80.100 98.150 V 103.950 C 80.100 104.050 80.200 103.950 80.100 103.950 H 77.200 C 77.145 103.950 77.100 103.995 77.100 104.050 V 110.050 C 77.100 110.105 77.145 110.150 77.200 110.150 H 80.100 C 80.200 110.150 80.100 110.050 80.100 110.150 V 115.950 C 80.100 116.050 80.200 115.950 80.100 115.950 H 77.200 C 77.145 115.950 77.100 115.995 77.100 116.050 V 122.050 C 77.100 122.105 77.145 122.150 77.200 122.150 H 80.100 C 80.200 122.150 80.100 122.050 80.100 122.150 V 130.550 C 80.100 130.605 80.145 130.650 80.200 130.650 Z" stroke="rgb(0,0,0)" stroke-width="0.20" />
  <path d="M 83.100 118.050 V 120.950 C 83.100 121.050 83.200 120.950 83.100 120.950 H 80.300 C 80.200 120.950 80.300 121.050 80.300 120.950 V 115.150 C 80.300 115.050 80.200 115.150 80.300 115.150 H 83.100 C 83.200 115.150 83.100 115.050 83.100 115.150 V 118.050 Z" stroke="rgb(0,0,255)" stroke-width="0.20" />
  <path d="M 83.100 106.050 V 108.950 C 83.100 109.050 83.200 108.950 83.100 108.950 H 80.300 C 80.200 108.950 80.300 109.050 80.300 108.950 V 103.150 C 80.300 103.050 80.200 103.150 80.300 103.150 H 83.100 C 83.200 103.150 83.100 103.050 83.100 103.150 V 106.050 Z" stroke="rgb(0,0,255)" stroke-width="0.20" />
  <path d="M 86.100 118.050 V 120.950 C 86.100 121.050 86.200 120.950 86.100 120.950 H 83.300 C 83.200 120.950 83.300 121.050 83.300 120.950 V 115.150 C 83.300 115.050 83.200 115.150 83.300 115.150 H 86.100 C 86.200 115.150 86.100 115.050 86.100 115.150 V 118.050 Z" stroke="rgb(0,0,255)" stroke-width="0.20" />
  <path d="M 86.100 106.050 V 108.950 C 86.100 109.050 86.200 108.950 86.100 108.950 H 83.300 C 83.200 108.950 83.300 109.050 83.300 108.950 V 103.150 C 83.300 103.050 83.200 103.150 83.300 103.150 H 86.100 C 86.200 103.150 86.100 103.050 86.100 103.150 V 106.050 Z" stroke="rgb(0,0,255)" stroke-width="0.20" />
  <path d="M 89.100 118.050 V 120.950 C 89.100 121.050 89.200 120.950 89.100 120.950 H 86.300 C 86.200 120.950 86.300 121.050 86.300 120.950 V 115.150 C 86.300 115.050 86.200 115.150 86.300 115.150 H 89.100 C 89.200 115.150 89.100 115.050 89.100 115.150 V 118.050 Z" stroke="rgb(0,0,255)" stroke-width="0.20" />
  <path d="M 89.100 106.050 V 108.950 C 89.100 109.050 89.200 108.950 89.100 108.950 H 86.300 C 86.200 108.950 86.300 109.050 86.300 108.950 V 103.150 C 86.300 103.050 86.200 103.150 86.300 103.150 H 89.100 C 89.200 103.150 89.100 103.050 89.100 103.150 V 106.050 Z" stroke="rgb(0,0,255)" stroke-width="0.20" />
</g>
<g id="p-6" style="fill:none;stroke-linecap:round;stroke-linejoin:round;">
  <path d="M 13.400 78.950 H 16.400 H 19.400 H 22.400 H 25.400 C 25.455 78.950 25.500 78.905 25.500 78.850 V 70.350 C 25.500 70.295 25.455 70.250 25.400 70.250 H 22.500 C 22.400 70.250 22.500 70.350 22.500 70.250 V 64.450 C 22.500 64.350 22.400 64.450 22.500 64.450 H 25.400 C 25.455 64.450 25.500 64.405 25.500 64.350 V 58.350 C 25.500 58.295 25.455 58.250 25.400 58.250 H 22.500 C 22.400 58.250 22.500 58.350 22.500 58.250 V 52.450 C 22.500 52.350 22.400 52.450 22.500 52.450 H 25.400 C 25.455 52.450 25.500 52.405 25.500 52.350 V 46.350 C 25.500 46.295 25.455 46.250 25.400 46.250 H 22.500 C 22.400 46.250 22.500 46.350 22.500 46.250 V 40.450 C 22.500 40.350 22.400 40.450 22.500 40.450 H 25.400 C 25.455 40.450 25.500 40.405 25.500 40.350 V 31.850 C 25.500 31.795 25.455 31.750 25.400 31.750 H 22.400 H 19.400 H 16.400 H 13.400 H 10.400 C 10.345 31.750 10.300 31.795 10.300 31.850 V 40.350 C 10.300 40.405 10.345 40.450 10.400 40.450 H 13.300 C 13.400 40.450 13.300 40.350 13.300 40.450 V 46.250 C 13.300 46.350 13.400 46.250 13.300 46.250 H 10.400 C 10.345 46.250 10.300 46.295 10.300 46.350 V 52.350 C 10.300 52.405 10.345 52.450 10.400 52.450 H 13.300 C 13.400 52.450 13.300 52.350 13.300 52.450 V 58.250 C 13.300 58.350 13.400 58.250 13.300 58.250 H 10.400 C 10.345 58.250 10.300 58.295 10.300 58.350 V 64.350 C 10.300 64.405 10.345 64.450 10.400 64.450 H 13.300 C 13.400 64.450 13.300 64.350 13.300 64.450 V 70.250 C 13.300 70.350 13.400 70.250 13.300 70.250 H 10.400 C 10.345 70.250 10.300 70.295 10.300 70.350 V 78.850 C 10.300 78.905 10.345 78.950 10.400 78.950 H 13.400 Z" stroke="rgb(0,0,0)" stroke-width="0.20" />
  <path d="M 16.300 66.350 V 69.250 C 16.300 69.350 16.400 69.250 16.300 69.250 H 13.500 C 13.400 69.250 13.500 69.350 13.500 69.250 V 63.450 C 13.500 63.350 13.400 63.450 13.500 63.450 H 16.300 C 16.400 63.450 16.300 63.350 16.300 63.450 V 66.350 Z" stroke="rgb(0,0,255)" stroke-width="0.20" />
  <path d="M 16.300 54.350 V 57.250 C 16.300 57.350 16.400 57.250 16.300 57.250 H 13.500 C 13.400 57.250 13.500 57.350 13.500 57.250 V 51.450 C 13.500 51.350 13.400 51.450 13.500 51.450 H 16.300 C 16.400 51.450 16.300 51.350 16.300 51.450 V 54.350 Z" stroke="rgb(0,0,255)" stroke-width="0.20" />
  <path d="M 19.300 66.350 V 69.250 C 19.300 69.350 19.400 69.250 19.300 69.250 H 16.500 C 16.400 69.250 16.500 69.350 16.500 69.250 V 63.450 C 16.500 63.350 16.400 63.450 16.500 63.450 H 19.300 C 19.400 63.450 19.300 63.350 19.300 63.450 V 66.350 Z" stroke="rgb(0,0,255)" stroke-width="0.20" />
  <path d="M 19.300 54.350 V 57.250 C 19.300 57.350 19.400 57.250 19.300 57.250 H 16.500 C 16.400 57.250 16.500 57.350 16.500 57.250 V 51.450 C 16.500 51.350 16.400 51.450 16.500 51.450 H 19.300 C 19.400 51.450 19.300 51.350 19.300 51.450 V 54.350 Z" stroke="rgb(0,0,255)" stroke-width="0.20" />
  <path d="M 22.300 66.350 V 69.250 C 22.300 69.350 22.400 69.250 22.300 69.250 H 19.500 C 19.400 69.250 19.500 69.350 19.500 69.250 V 63.450 C 19.500 63.350 19.400 63.450 19.500 63.450 H 22.300 C 22.400 63.450 22.300 63.350 22.300 63.450 V 66.350 Z" stroke="rgb(0,0,255)" stroke-width="0.20" />
  <path d="M 22.300 54.350 V 57.250 C 22.300 57.350 22.400 57.250 22.300 57.250 H 19.500 C 19.400 57.250 19.500 57.350 19.500 57.250 V 51.450 C 19.500 51.350 19.400 51.450 19.500 51.450 H 22.300 C 22.400 51.450 22.300 51.350 22.300 51.450 V 54.350 Z" stroke="rgb(0,0,255)" stroke-width="0.20" />
</g>
<g id="p-7" style="fill:none;stroke-linecap:round;stroke-linejoin:round;">
  <path d="M 30.100 78.950 H 33.100 H 36.100 H 39.100 C 39.155 78.950 39.200 78.905 39.200 78.850 V 69.450 C 39.200 69.350 39.100 69.450 39.200 69.450 H 42.100 C 42.155 69.450 42.200 69.405 42.200 69.350 V 63.350 C 42.200 63.295 42.155 63.250 42.100 63.250 H 39.200 C 39.100 63.250 39.200 63.350 39.200 63.250 V 57.450 C 39.200 57.350 39.100 57.450 39.200 57.450 H 42.100 C 42.155 57.450 42.200 57.405 42.200 57.350 V 51.350 C 42.200 51.295 42.155 51.250 42.100 51.250 H 39.200 C 39.100 51.250 39.200 51.350 39.200 51.250 V 41.850 C 39.200 41.795 39.155 41.750 39.100 41.750 C 39.045 41.750 39.000 41.795 39.000 41.850 V 60.250 C 39.000 60.350 39.100 60.250 39.000 60.250 H 36.200 C 36.100 60.250 36.200 60.350 36.200 60.250 V 41.850 C 36.200 41.795 36.155 41.750 36.100 41.750 C 36.045 41.750 36.000 41.795 36.000 41.850 V 60.250 C 36.000 60.350 36.100 60.250 36.000 60.250 H 33.200 C 33.100 60.250 33.200 60.350 33.200 60.250 V 41.850 C 33.200 41.795 33.155 41.750 33.100 41.750 C 33.045 41.750 33.000 41.795 33.000 41.850 V 60.250 C 33.000 60.350 33.100 60.250 33.000 60.250 H 30.200 C 30.100 60.250 30.200 60.350 30.200 60.250 V 41.850 C 30.200 41.795 30.155 41.750 30.100 41.750 C 30.045 41.750 30.000 41.795 30.000 41.850 V 51.250 C 30.000 51.350 30.100 51.250 30.000 51.250 H 27.100 C 27.045 51.250 27.000 51.295 27.000 51.350 V 57.350 C 27.000 57.405 27.045 57.450 27.100 57.450 H 30.000 C 30.100 57.450 30.000 57.350 30.000 57.450 V 63.250 C 30.000 63.350 30.100 63.250 30.000 63.250 H 27.100 C 27.045 63.250 27.000 63.295 27.000 63.350 V 69.350 C 27.000 69.405 27.045 69.450 27.100 69.450 H 30.000 C 30.100 69.450 30.000 69.350 30.000 69.450 V 78.850 C 30.000 78.905 30.045 78.950 30.100 78.950 Z" stroke="rgb(0,0,0)" stroke-width="0.20" />
</g>
<g id="p-8" style="fill:none;stroke-linecap:round;stroke-linejoin:round;">
  <path d="M 46.800 78.950 H 49.800 H 52.800 H 55.800 C 55.855 78.950 55.900 78.905 55.900 78.850 V 69.450 C 55.900 69.350 55.800 69.450 55.900 69.450 H 58.800 C 58.855 69.450 58.900 69.405 58.900 69.350 V 63.350 C 58.900 63.295 58.855 63.250 58.800 63.250 H 55.900 C 55.800 63.250 55.900 63.350 55.900 63.250 V 57.450 C 55.900 57.350 55.800 57.450 55.900 57.450 H 58.800 C 58.855 57.450 58.900 57.405 58.900 57.350 V 51.350 C 58.900 51.295 58.855 51.250 58.800 51.250 H 55.900 C 55.800 51.250 55.900 51.350 55.900 51.250 V 41.850 C 55.900 41.795 55.855 41.750 55.800 41.750 C 55.745 41.750 55.700 41.795 55.700 41.850 V 60.250 C 55.700 60.350 55.800 60.250 55.700 60.250 H 52.900 C 52.800 60.250 52.900 60.350 52.900 60.250 V 41.850 C 52.900 41.795 52.855 41.750 52.800 41.750 C 52.745 41.750 52.700 41.795 52.700 41.850 V 60.250 C 52.700 60.350 52.800 60.250 52.700 60.250 H 49.900 C 49.800 60.250 49.900 60.350 49.900 60.250 V 41.850 C 49.900 41.795 49.855 41.750 49.800 41.750 C 49.745 41.750 49.700 41.795 49.700 41.850 V 60.250 C 49.700 60.350 49.800 60.250 49.700 60.250 H 46.900 C 46.800 60.250 46.900 60.350 46.900 60.250 V 41.850 C 46.900 41.795 46.855 41.750 46.800 41.750 C 46.745 41.750 46.700 41.795 46.700 41.850 V 51.250 C 46.700 51.350 46.800 51.250 46.700 51.250 H 43.800 C 43.745 51.250 43.700 51.295 43.700 51.350 V 57.350 C 43.700 57.405 43.745 57.450 43.800 57.450 H 46.700 C 46.800 57.450 46.700 57.350 46.700 57.450 V 63.250 C 46.700 63.350 46.800 63.250 46.700 63.250 H 43.800 C 43.745 63.250 43.700 63.295 43.700 63.350 V 69.350 C 43.700 69.405 43.745 69.450 43.800 69.450 H 46.700 C 46.800 69.450 46.700 69.350 46.700 69.450 V 78.850 C 46.700 78.905 46.745 78.950 46.800 78.950 Z" stroke="rgb(0,0,0)" stroke-width="0.20" />
</g>
<g id="p-9" style="fill:none;stroke-linecap:round;stroke-linejoin:round;">
  <path d="M 63.500 78.950 H 66.500 H 69.500 H 72.500 C 72.555 78.950 72.600 78.905 72.600 78.850 V 69.450 C 72.600 69.350 72.500 69.450 72.600 69.450 H 75.500 C 75.555 69.450 75.600 69.405 75.600 69.350 V 63.350 C 75.600 63.295 75.555 63.250 75.500 63.250 H 72.600 C 72.500 63.250 72.600 63.350 72.600 63.250 V 57.450 C 72.600 57.350 72.500 57.450 72.600 57.450 H 75.500 C 75.555 57.450 75.600 57.405 75.600 57.350 V 51.350 C 75.600 51.295 75.555 51.250 75.500 51.250 H 72.600 C 72.500 51.250 72.600 51.350 72.600 51.250 V 41.850 C 72.600 41.795 72.555 41.750 72.500 41.750 C 72.445 41.750 72.400 41.795 72.400 41.850 V 60.250 C 72.400 60.350 72.500 60.250 72.400 60.250 H 69.600 C 69.500 60.250 69.600 60.350 69.600 60.250 V 41.850 C 69.600 41.795 69.555 41.750 69.500 41.750 C 69.445 41.750 69.400 41.795 69.400 41.850 V 60.250 C 69.400 60.350 69.500 60.250 69.400 60.250 H 66.600 C 66.500 60.250 66.600 60.350 66.600 60.250 V 41.850 C 66.600 41.795 66.555 41.750 66.500 41.750 C 66.445 41.750 66.400 41.795 66.400 41.850 V 60.250 C 66.400 60.350 66.500 60.250 66.400 60.250 H 63.600 C 63.500 60.250 63.600 60.350 63.600 60.250 V 41.850 C 63.600 41.795 63.555 41.750 63.500 41.750 C 63.445 41.750 63.400 41.795 63.400 41.850 V 51.250 C 63.400 51.350 63.500 51.250 63.400 51.250 H 60.500 C 60.445 51.250 60.400 51.295 60.400 51.350 V 57.350 C 60.400 57.405 60.445 57.450 60.500 57.450 H 63.400 C 63.500 57.450 63.400 57.350 63.400 57.450 V 63.250 C 63.400 63.350 63.500 63.250 63.400 63.250 H 60.500 C 60.445 63.250 60.400 63.295 60.400 63.350 V 69.350 C 60.400 69.405 60.445 69.450 60.500 69.450 H 63.400 C 63.500 69.450 63.400 69.350 63.400 69.450 V 78.850 C 63.400 78.905 63.445 78.950 63.500 78.950 Z" stroke="rgb(0,0,0)" stroke-width="0.20" />
</g>
<g id="p-10" style="fill:none;stroke-linecap:round;stroke-linejoin:round;">
  <path d="M 80.200 78.950 H 83.200 H 86.200 H 89.200 H 92.200 C 92.255 78.950 92.300 78.905 92.300 78.850 V 70.350 C 92.300 70.295 92.255 70.250 92.200 70.250 H 89.300 C 89.200 70.250 89.300 70.350 89.300 70.250 V 64.450 C 89.300 64.350 89.200 64.450 89.300 64.450 H 92.200 C 92.255 64.450 92.300 64.405 92.300 64.350 V 58.350 C 92.300 58.295 92.255 58.250 92.200 58.250 H 89.300 C 89.200 58.250 89.300 58.350 89.300 58.250 V 52.450 C 89.300 52.350 89.200 52.450 89.300 52.450 H 92.200 C 92.255 52.450 92.300 52.405 92.300 52.350 V 46.350 C 92.300 46.295 92.255 46.250 92.200 46.250 H 89.300 C 89.200 46.250 89.300 46.350 89.300 46.250 V 40.450 C 89.300 40.350 89.200 40.450 89.300 40.450 H 92.200 C 92.255 40.450 92.300 40.405 92.300 40.350 V 31.850 C 92.300 31.795 92.255 31.750 92.200 31.750 H 89.200 H 86.200 H 83.200 H 80.200 H 77.200 C 77.145 31.750 77.100 31.795 77.100 31.850 V 40.350 C 77.100 40.405 77.145 40.450 77.200 40.450 H 80.100 C 80.200 40.450 80.100 40.350 80.100 40.450 V 46.250 C 80.100 46.350 80.200 46.250 80.100 46.250 H 77.200 C 77.145 46.250 77.100 46.295 77.100 46.350 V 52.350 C 77.100 52.405 77.145 52.450 77.200 52.450 H 80.100 C 80.200 52.450 80.100 52.350 80.100 52.450 V 58.250 C 80.100 58.350 80.200 58.250 80.100 58.250 H 77.200 C 77.145 58.250 77.100 58.295 77.100 58.350 V 64.350 C 77.100 64.405 77.145 64.450 77.200 64.450 H 80.100 C 80.200 64.450 80.100 64.350 80.100 64.450 V 70.250 C 80.100 70.350 80.200 70.250 80.100 70.250 H 77.200 C 77.145 70.250 77.100 70.295 77.100 70.350 V 78.850 C 77.100 78.905 77.145 78.950 77.200 78.950 H 80.200 Z" stroke="rgb(0,0,0)" stroke-width="0.20" />
  <path d="M 83.100 66.350 V 69.250 C 83.100 69.350 83.200 69.250 83.100 69.250 H 80.300 C 80.200 69.250 80.300 69.350 80.300 69.250 V 63.450 C 80.300 63.350 80.200 63.450 80.300 63.450 H 83.100 C 83.200 63.450 83.100 63.350 83.100 63.450 V 66.350 Z" stroke="rgb(0,0,255)" stroke-width="0.20" />
  <path d="M 83.100 54.350 V 57.250 C 83.100 57.350 83.200 57.250 83.100 57.250 H 80.300 C 80.200 57.250 80.300 57.350 80.300 57.250 V 51.450 C 80.300 51.350 80.200 51.450 80.300 51.450 H 83.100 C 83.200 51.450 83.100 51.350 83.100 51.450 V 54.350 Z" stroke="rgb(0,0,255)" stroke-width="0.20" />
  <path d="M 86.100 66.350 V 69.250 C 86.100 69.350 86.200 69.250 86.100 69.250 H 83.300 C 83.200 69.250 83.300 69.350 83.300 69.250 V 63.450 C 83.300 63.350 83.200 63.450 83.300 63.450 H 86.100 C 86.200 63.450 86.100 63.350 86.100 63.450 V 66.350 Z" stroke="rgb(0,0,255)" stroke-width="0.20" />
  <path d="M 86.100 54.350 V 57.250 C 86.100 57.350 86.200 57.250 86.100 57.250 H 83.300 C 83.200 57.250 83.300 57.350 83.300 57.250 V 51.450 C 83.300 51.350 83.200 51.450 83.300 51.450 H 86.100 C 86.200 51.450 86.100 51.350 86.100 51.450 V 54.350 Z" stroke="rgb(0,0,255)" stroke-width="0.20" />
  <path d="M 89.100 66.350 V 69.250 C 89.100 69.350 89.200 69.250 89.100 69.250 H 86.300 C 86.200 69.250 86.300 69.350 86.300 69.250 V 63.450 C 86.300 63.350 86.200 63.450 86.300 63.450 H 89.100 C 89.200 63.450 89.100 63.350 89.100 63.450 V 66.350 Z" stroke="rgb(0,0,255)" stroke-width="0.20" />
  <path d="M 89.100 54.350 V 57.250 C 89.100 57.350 89.200 57.250 89.100 57.250 H 86.300 C 86.200 57.250 86.300 57.350 86.300 57.250 V 51.450 C 86.300 51.350 86.200 51.450 86.300 51.450 H 89.100 C 89.200 51.450 89.100 51.350 89.100 51.450 V 54.350 Z" stroke="rgb(0,0,255)" stroke-width="0.20" />
</g>
<g id="p-11" style="fill:none;stroke-linecap:round;stroke-linejoin:round;">
  <path d="M 15.550 25.200 H 18.550 H 21.550 M 18.550 25.200 H 21.550 H 24.550 M 21.550 25.200 H 24.550 H 27.550 M 24.550 25.200 H 27.550 H 30.550 M 18.550 10.000 H 15.550 M 21.550 10.000 H 18.550 M 21.550 10.000 H 18.550 M 24.550 10.000 H 21.550 M 24.550 10.000 H 21.550 M 27.550 10.000 H 24.550 M 27.550 10.000 H 24.550 M 30.550 10.000 H 27.550 M 15.450 19.100 V 22.100 V 25.100 M 15.450 16.100 V 19.100 V 22.100 M 15.450 13.100 V 16.100 V 19.100 M 15.450 10.100 V 13.100 V 16.100 M 30.650 22.100 V 19.100 M 30.650 25.100 V 22.100 M 30.650 19.100 V 16.100 M 30.650 22.100 V 19.100 M 30.650 16.100 V 13.100 M 30.650 19.100 V 16.100 M 30.650 13.100 V 10.100 M 30.650 16.100 V 13.100" stroke="rgb(0,0,0)" stroke-width="0.20" />
</g>
</svg>
